# AST/ASF file generated using VICON BodyLanguage
# -----------------------------------------------
:version 1.10
:name VICON
:units
  mass 1.0
  length 0.45
  angle deg
:documentation
   .ast/.asf automatically generated from VICON data using
   VICON BodyBuilder and BodyLanguage model FoxedUp or BRILLIANT.MOD
:root
   order TX TY TZ RX RY RZ
   axis XYZ
   position 0 0 0  
   orientation 0 0 0 
:bonedata
  begin
     id 1 
     name lhipjoint
     direction 0.650112 -0.723553 0.232005 
     length 2.45805 
     axis 0 0 0  XYZ
  end
  begin
     id 2 
     name lfemur
     direction 0.34202 -0.939693 0  
     length 7.00073  
     axis 0 0 20  XYZ
    dof rx ry rz
    limits (-160.0 20.0)
           (-70.0 70.0)
           (-60.0 70.0)
  end
  begin
     id 3 
     name ltibia
     direction 0.34202 -0.939693 0   
     length 7.8748   
     axis 0 0 20   XYZ
    dof rx
    limits (-10.0 170.0)
  end
  begin
     id 4 
     name lfoot
     direction 0.0542825 -0.14914 0.987325   
     length 1.75978   
     axis -90 7.62852e-016 20   XYZ
    dof rx rz
    limits (-45.0 90.0)
           (-70.0 20.0)
  end
  begin
     id 5 
     name ltoes
     direction 1.53509e-011 -4.21906e-011 1   
     length 0.893912   
     axis -90 7.62852e-016 20   XYZ
    dof rx
    limits (-90.0 20.0)
  end
  begin
     id 6 
     name rhipjoint
     direction -0.637897 -0.733345 0.235145   
     length 2.42522  
     axis 0 0 0  XYZ 
  end
  begin
     id 7 
     name rfemur
     direction -0.34202 -0.939693 0   
     length 7.02549   
     axis 0 0 -20   XYZ
    dof rx ry rz
    limits (-160.0 20.0)
           (-70.0 70.0)
           (-70.0 60.0)
  end
  begin
     id 8 
     name rtibia
     direction -0.34202 -0.939693 0   
     length 7.71512   
     axis 0 0 -20   XYZ
    dof rx
    limits (-10.0 170.0)
 end
 begin
     id 9 
     name rfoot
     direction -0.0822618 -0.226012 0.970645   
     length 1.90014  
     axis -90 -7.62852e-016 -20   XYZ
    dof rx rz
    limits (-45.0 90.0)
           (-20.0 70.0)
  end
  begin
     id 10 
     name rtoes
     direction -1.53542e-011 -4.21872e-011 1   
     length 0.957341   
     axis -90 -7.62852e-016 -20   XYZ
    dof rx
    limits (-90.0 20.0)
  end
  begin
     id 11 
     name lowerback
     direction -0.0022947 0.999774 -0.0211557   
     length 1.89909   
     axis 0 0 0   XYZ
    dof rx ry rz
    limits (-20.0 45.0)
           (-30.0 30.0)
           (-30.0 30.0)
  end
  begin
     id 12 
     name upperback
     direction 0.0107737 0.998635 0.0511027   
     length 1.8853   
     axis 0 0 0   XYZ
    dof rx ry rz
    limits (-20.0 45.0)
           (-30.0 30.0)
           (-30.0 30.0)
  end
  begin
     id 13 
     name thorax
     direction 0.011824 0.998136 0.0598754   
     length 1.88911   
     axis 0 0 0   XYZ
    dof rx ry rz
    limits (-20.0 45.0)
           (-30.0 30.0)
           (-30.0 30.0)
  end
  begin
     id 14 
     name lowerneck
     direction -0.0685355 0.990319 0.120714   
     length 1.91222   
     axis 0 0 0   XYZ
    dof rx ry rz
    limits (-20.0 45.0)
           (-30.0 30.0)
           (-30.0 30.0)
  end
  begin
     id 15 
     name upperneck
     direction 0.0886204 0.955665 -0.280805   
     length 1.92526   
     axis 0 0 0   XYZ
    dof rx ry rz
    limits (-20.0 45.0)
           (-30.0 30.0)
           (-30.0 30.0)
  end
  begin
     id 16
     name head
     direction 0.0233423 0.993502 -0.111393  
     length 1.96056  
     axis 0 0 0   XYZ
    dof rx ry rz
    limits (-20.0 45.0)
           (-30.0 30.0)
           (-30.0 30.0)
  end
  begin
     id 17 
     name lclavicle
     direction 0.941873 0.32922 0.0670041  
     length 3.31705  
     axis 0 0 0   XYZ
    dof ry rz
    limits (-20.0 10.0)
           (0.0 20.0)
  end
  begin
     id 18 
     name lhumerus
     direction 1 -4.4898e-011 3.38707e-028   
     length 5.29277   
     axis 180 -30 -90   XYZ
    dof rx ry rz
    limits (-60.0 90.0)
           (-90.0 90.0)
           (-90.0 90.0)
  end
  begin
     id 19
     name lradius
     direction 1 -4.48952e-011 1.63213e-028   
     length 2.85226   
     axis 180 -30 -90   XYZ
    dof rx
    limits (-10.0 170.0)
  end
  begin
     id 20
     name lwrist
     direction 1 -4.49001e-011 1.27856e-027   
     length 1.42613   
     axis -1.61767e-015 90 90   XYZ
    dof ry
    limits (-180.0 0.0)
 end
  begin
     id 21 
     name lhand
     direction 1 -4.48976e-011 2.55931e-027   
     length 0.602097   
     axis -1.63363e-015 90 90   XYZ
    dof rx rz
    limits (-90.0 90.0)
           (-45.0 45.0)
  end
  begin
     id 22 
     name lfingers
     direction 1 -4.48986e-011 5.11684e-027   
     length 0.485426   
     axis -3.26723e-015 90 90   XYZ
    dof rx
    limits (0.0 90.0)
  end
  begin
     id 23
     name lthumb
     direction 0.707107 -6.34915e-011 0.707107   
     length 0.696978   
     axis -90 45 -2.25915e-014   XYZ
    dof rx rz
    limits (-45.0 45.0)
           (-45.0 45.0)
  end
  begin
     id 24 
     name rclavicle
     direction -0.939974 0.327078 0.0973096   
     length 3.10337  
     axis 0 0 0   XYZ 
    dof ry rz
    limits (-10.0 20.0)
           (-20.0 0.0)
  end
  begin
     id 25 
     name rhumerus
     direction -1 -4.48975e-011 1.83745e-027  
     length 5.13304   
     axis 180 30 90   XYZ
    dof rx ry rz
    limits (-90.0 60.0)
           (-90.0 90.0)
           (-90.0 90.0)
  end
  begin
     id 26 
     name rradius
     direction -1 -4.48977e-011 7.1775e-029   
     length 2.74305   
     axis 180 30 90   XYZ
    dof rx
    limits (-10.0 170.0)
  end
  begin
     id 27 
     name rwrist
     direction -1 -4.48977e-011 1.27963e-027   
     length 1.37152   
     axis -1.61767e-015 -90 -90   XYZ
    dof ry
    limits (-180.0 0.0)
  end
  begin
     id 28
     name rhand
     direction -1 -4.4888e-011 2.56782e-027   
     length 0.767976   
     axis -1.63363e-015 -90 -90   XYZ
    dof rx rz
    limits (-90.0 90.0)
           (-45.0 45.0)
  end
  begin
     id 29
     name rfingers
     direction -1 -4.48947e-011 5.12384e-027   
     length 0.619162   
     axis -3.26723e-015 -90 -90   XYZ
    dof rx
    limits (0.0 90.0)
  end
  begin
     id 30
     name rthumb
     direction -0.707107 -6.34857e-011 0.707107   
     length 0.888997   
     axis -90 -45 2.25915e-014   XYZ
    dof rx rz
    limits (-45.0 45.0)
           (-45.0 45.0)
  end
:hierarchy
  begin
    root lhipjoint rhipjoint lowerback
    lhipjoint lfemur
    lfemur ltibia
    ltibia lfoot
    lfoot ltoes
    rhipjoint rfemur
    rfemur rtibia
    rtibia rfoot
    rfoot rtoes
    lowerback upperback
    upperback thorax
    thorax lowerneck lclavicle rclavicle
    lowerneck upperneck
    upperneck head
    lclavicle lhumerus
    lhumerus lradius
    lradius lwrist
    lwrist lhand lthumb
    lhand lfingers
    rclavicle rhumerus
    rhumerus rradius
    rradius rwrist
    rwrist rhand rthumb
    rhand rfingers
  end

#!OML:ASF F:\VICON\USERDATA\INSTALL\rory3\rory3.ASF
:FULLY-SPECIFIED
:DEGREES
1273
root 0.0693207 17.4063 0.206758 2.87952 4.02104 -2.37222
lowerback -4.27293 -0.384007 0.203572
upperback -3.66429 -0.506944 1.01677
thorax -1.35914 -0.244236 0.913525
lowerneck -9.35475 -10.3345 -15.3159
upperneck 27.578 -14.8789 10.4963
head 12.7051 -7.17329 4.3315
rclavicle -6.27414e-016 -8.02593e-015
rhumerus -400.086 -15.05 -435.759
rradius 23.2425
rwrist 29.0499
rhand -9.90316 12.9031
rfingers 7.12502
rthumb 16.0769 -16.4499
lclavicle -6.27414e-016 -8.02593e-015
lhumerus -31.7352 6.65165 85.8841
lradius 16.3156
lwrist -22.6526
lhand -7.1363 23.3162
lfingers 7.12502
lthumb 18.7397 52.4336
rfemur 7.6417 7.99933 22.4369
rtibia 1.11319e-014
rfoot -8.91429 -12.9589
rtoes -10.7824
lfemur -2.77109 -21.374 -16.8976
ltibia 16.4426
lfoot -15.9403 12.7061
ltoes -18.4249
1274
root 0.0688213 17.4062 0.208856 2.88583 4.06327 -2.41354
lowerback -4.31595 -0.388477 0.225279
upperback -3.67472 -0.51369 1.01913
thorax -1.34597 -0.247998 0.903314
lowerneck -9.37512 -10.3417 -15.259
upperneck 27.5547 -14.8885 10.472
head 12.6935 -7.17363 4.30984
rclavicle -1.04207e-014 8.24956e-015
rhumerus -400.097 -15.0783 -435.753
rradius 23.27
rwrist 28.8887
rhand -9.98671 12.9175
rfingers 7.12502
rthumb 15.9964 -16.4421
lclavicle -1.04207e-014 8.24956e-015
lhumerus -31.7868 6.76012 85.7474
lradius 16.2476
lwrist -22.8845
lhand -7.23742 23.1725
lfingers 7.12502
lthumb 18.6425 52.2992
rfemur 7.63942 7.94857 22.4836
rtibia 1.90833e-014
rfoot -8.86963 -12.9724
rtoes -10.7729
lfemur -2.78686 -21.4391 -16.8472
ltibia 16.4541
lfoot -15.9569 12.6987
ltoes -18.0154
1275
root 0.070608 17.4069 0.210087 2.92588 4.11802 -2.28898
lowerback -4.36655 -0.410012 0.0948654
upperback -3.68456 -0.538982 0.991065
thorax -1.3266 -0.258355 0.946518
lowerneck -9.42496 -10.3572 -15.2582
upperneck 27.552 -14.902 10.465
head 12.7042 -7.17813 4.30192
rclavicle 1.79496e-014 -3.52843e-015
rhumerus -400.088 -15.0948 -435.711
rradius 23.3102
rwrist 28.7911
rhand -9.9633 12.9722
rfingers 7.12502
rthumb 16.019 -16.3855
lclavicle 1.79496e-014 -3.52843e-015
lhumerus -31.822 6.81049 85.6785
lradius 16.1566
lwrist -22.9612
lhand -7.39666 23.0581
lfingers 7.12502
lthumb 18.4893 52.1994
rfemur 7.61666 7.87918 22.3347
rtibia -3.18055e-015
rfoot -8.86501 -12.9426
rtoes -11.1974
lfemur -2.82417 -21.5005 -16.976
ltibia 16.4601
lfoot -16.0754 12.7336
ltoes -18.1115
1276
root 0.071293 17.4068 0.211885 2.92644 4.16303 -2.24769
lowerback -4.36239 -0.428354 0.0515991
upperback -3.7038 -0.562044 0.971407
thorax -1.34815 -0.26916 0.950027
lowerneck -9.38019 -10.3356 -15.224
upperneck 27.4853 -14.8842 10.491
head 12.6637 -7.16623 4.31107
rclavicle 1.4269e-014 -5.96354e-016
rhumerus -400.127 -15.0774 -435.714
rradius 23.364
rwrist 28.7503
rhand -9.91368 12.9338
rfingers 7.12502
rthumb 16.0668 -16.4201
lclavicle 1.4269e-014 -5.96354e-016
lhumerus -31.8663 6.93986 85.5394
lradius 16.0147
lwrist -23.0114
lhand -7.59429 22.9921
lfingers 7.12502
lthumb 18.2992 52.1514
rfemur 7.63527 7.82198 22.2876
rtibia 2.22639e-014
rfoot -8.92413 -12.9069
rtoes -11.3303
lfemur -2.81169 -21.5263 -17.0252
ltibia 16.4508
lfoot -16.0009 12.7978
ltoes -18.9474
1277
root 0.0706984 17.4075 0.212361 2.91156 4.1919 -2.28689
lowerback -4.34701 -0.431942 0.0440426
upperback -3.72218 -0.566052 1.00645
thorax -1.37521 -0.270467 0.990349
lowerneck -9.3168 -10.3166 -15.2265
upperneck 27.4261 -14.8594 10.4968
head 12.6231 -7.15762 4.32036
rclavicle -7.16557e-015 1.63997e-015
rhumerus -400.141 -14.9872 -435.719
rradius 23.4127
rwrist 28.6003
rhand -9.93343 12.8711
rfingers 7.12502
rthumb 16.0478 -16.4843
lclavicle -7.16557e-015 1.63997e-015
lhumerus -31.9307 7.2173 85.4175
lradius 15.9226
lwrist -23.2866
lhand -7.68534 23.0246
lfingers 7.12502
lthumb 18.2116 52.1921
rfemur 7.65298 7.78344 22.3358
rtibia 1.27222e-014
rfoot -8.96709 -12.8891
rtoes -11.1971
lfemur -2.79632 -21.5239 -16.9753
ltibia 16.4236
lfoot -15.8301 12.8253
ltoes -19.5366
1278
root 0.0704787 17.4073 0.212101 2.92941 4.22463 -2.32935
lowerback -4.35292 -0.459051 0.0547124
upperback -3.73589 -0.602135 1.03688
thorax -1.38525 -0.288308 1.01452
lowerneck -9.33852 -10.3128 -15.2278
upperneck 27.3889 -14.8427 10.4858
head 12.6088 -7.15076 4.3176
rclavicle 9.27455e-015 -2.08724e-015
rhumerus -400.079 -14.9641 -435.742
rradius 23.3856
rwrist 28.4742
rhand -10.0092 12.8365
rfingers 7.12502
rthumb 15.9748 -16.5248
lclavicle 9.27455e-015 -2.08724e-015
lhumerus -32.008 7.28045 85.3734
lradius 15.9432
lwrist -23.3525
lhand -7.50361 23.2916
lfingers 7.12502
lthumb 18.3864 52.4426
rfemur 7.62448 7.74215 22.3786
rtibia 4.77083e-015
rfoot -8.93093 -12.8993
rtoes -11.2827
lfemur -2.83796 -21.5413 -16.9123
ltibia 16.4363
lfoot -15.779 12.8452
ltoes -19.6819
1279
root 0.0716789 17.4071 0.212692 2.92817 4.22778 -2.33226
lowerback -4.37131 -0.476174 0.0446087
upperback -3.71607 -0.624855 1.05299
thorax -1.35391 -0.299403 1.03573
lowerneck -9.41444 -10.2987 -15.2157
upperneck 27.3451 -14.8056 10.4793
head 12.5988 -7.13067 4.31553
rclavicle -4.16827e-015 3.32964e-015
rhumerus -399.972 -14.9223 -435.798
rradius 23.3292
rwrist 28.3474
rhand -10.098 12.7938
rfingers 7.12502
rthumb 15.8893 -16.5743
lclavicle -4.16827e-015 3.32964e-015
lhumerus -32.0873 7.19565 85.4181
lradius 16.0454
lwrist -23.2241
lhand -6.9544 23.9248
lfingers 7.12502
lthumb 18.9147 53.0252
rfemur 7.63148 7.72829 22.3778
rtibia -1.74931e-014
rfoot -8.8623 -12.9102
rtoes -11.8643
lfemur -2.8495 -21.5649 -16.9175
ltibia 16.4705
lfoot -15.7283 12.8581
ltoes -20.1026
1280
root 0.0714062 17.4068 0.211988 2.90404 4.22399 -2.37028
lowerback -4.33646 -0.460114 0.0629074
upperback -3.71138 -0.603672 1.07358
thorax -1.36886 -0.288901 1.04753
lowerneck -9.38997 -10.3061 -15.221
upperneck 27.2549 -14.8143 10.4997
head 12.5609 -7.13391 4.32222
rclavicle -1.28589e-015 6.80837e-015
rhumerus -399.968 -14.8576 -435.834
rradius 23.4276
rwrist 28.2965
rhand -9.89266 12.6386
rfingers 7.12502
rthumb 16.087 -16.7137
lclavicle -1.28589e-015 6.80837e-015
lhumerus -32.145 6.96378 85.5357
lradius 16.0508
lwrist -22.9551
lhand -6.86165 23.9519
lfingers 7.12502
lthumb 19.0039 53.0435
rfemur 7.65311 7.72159 22.4235
rtibia 3.33958e-014
rfoot -8.88695 -12.8992
rtoes -12.1214
lfemur -2.83443 -21.5141 -16.8768
ltibia 16.4823
lfoot -15.7442 12.7861
ltoes -20.1458
1281
root 0.0716788 17.4067 0.2116 2.88146 4.23512 -2.36653
lowerback -4.30413 -0.456918 0.0691913
upperback -3.70748 -0.59945 1.07054
thorax -1.38304 -0.286933 1.04127
lowerneck -9.37906 -10.306 -15.222
upperneck 27.1978 -14.8089 10.501
head 12.5348 -7.132 4.32336
rclavicle 2.61837e-015 1.13059e-014
rhumerus -399.982 -14.9728 -435.802
rradius 23.5144
rwrist 28.511
rhand -9.7711 12.5844
rfingers 7.12502
rthumb 16.2041 -16.7584
lclavicle 2.61837e-015 1.13059e-014
lhumerus -32.1955 7.08848 85.4662
lradius 15.9543
lwrist -23.0578
lhand -7.25879 23.3747
lfingers 7.12502
lthumb 18.6219 52.5034
rfemur 7.67987 7.69838 22.4204
rtibia 2.70347e-014
rfoot -8.97107 -12.8841
rtoes -11.3852
lfemur -2.80117 -21.5421 -16.8911
ltibia 16.4628
lfoot -15.7372 12.8573
ltoes -20.2328
1282
root 0.0733429 17.4065 0.212092 2.87503 4.2614 -2.28332
lowerback -4.31054 -0.459964 -0.0148589
upperback -3.69021 -0.601417 1.05339
thorax -1.36097 -0.286506 1.07056
lowerneck -9.4019 -10.3116 -15.2455
upperneck 27.1587 -14.813 10.5302
head 12.5293 -7.13199 4.33583
rclavicle -4.07819e-015 4.74598e-015
rhumerus -399.958 -14.8076 -435.962
rradius 23.6231
rwrist 28.1638
rhand -10.1355 12.6368
rfingers 7.12502
rthumb 15.8531 -16.7342
lclavicle -4.07819e-015 4.74598e-015
lhumerus -32.2234 7.5991 85.2413
lradius 15.7876
lwrist -23.5752
lhand -7.53216 22.788
lfingers 7.12502
lthumb 18.3589 51.9417
rfemur 7.7013 7.65739 22.3233
rtibia -1.74931e-014
rfoot -9.01359 -12.8536
rtoes -10.9336
lfemur -2.77773 -21.6017 -17.0027
ltibia 16.4427
lfoot -15.5924 12.9593
ltoes -20.9754
1283
root 0.0735693 17.4067 0.211877 2.88515 4.29319 -2.28211
lowerback -4.37407 -0.46954 -0.0449354
upperback -3.65992 -0.613801 1.06682
thorax -1.29369 -0.292195 1.10007
lowerneck -9.44438 -10.3386 -15.2978
upperneck 27.1509 -14.8393 10.546
head 12.5458 -7.14527 4.34298
rclavicle -1.19706e-014 -5.01931e-015
rhumerus -399.911 -14.8635 -436.002
rradius 23.5832
rwrist 27.9921
rhand -10.7008 12.9936
rfingers 7.12502
rthumb 15.3087 -16.4198
lclavicle -1.19706e-014 -5.01931e-015
lhumerus -32.2628 7.84436 85.1304
lradius 15.6706
lwrist -23.8265
lhand -7.69209 22.6842
lfingers 7.12502
lthumb 18.2051 51.8523
rfemur 7.68793 7.61481 22.3181
rtibia -3.18055e-015
rfoot -9.01743 -12.8394
rtoes -11.43
lfemur -2.77931 -21.6065 -16.9952
ltibia 16.4128
lfoot -15.5947 12.7508
ltoes -19.914
1284
root 0.0744475 17.4065 0.211492 2.89355 4.32146 -2.28423
lowerback -4.52224 -0.480573 -0.0953948
upperback -3.56358 -0.628295 1.1173
thorax -1.11059 -0.29872 1.17774
lowerneck -9.52657 -10.3671 -15.381
upperneck 27.063 -14.8492 10.5761
head 12.5398 -7.15082 4.36017
rclavicle -2.63079e-015 -1.01256e-014
rhumerus -399.75 -14.9027 -435.996
rradius 23.5539
rwrist 28.1069
rhand -10.4277 12.9746
rfingers 7.12502
rthumb 15.5717 -16.4185
lclavicle -2.63079e-015 -1.01256e-014
lhumerus -32.1526 8.04817 85.1587
lradius 15.5451
lwrist -24.0199
lhand -7.7309 22.9115
lfingers 7.12502
lthumb 18.1677 52.0831
rfemur 7.68315 7.57615 22.317
rtibia -1.43125e-014
rfoot -8.99189 -12.8516
rtoes -11.8827
lfemur -2.78629 -21.6063 -16.9872
ltibia 16.4004
lfoot -15.7566 12.672
ltoes -18.6962
1285
root 0.0738363 17.4067 0.210276 2.89616 4.33259 -2.28086
lowerback -4.59219 -0.483033 -0.128212
upperback -3.49807 -0.631439 1.12358
thorax -1.00372 -0.300184 1.20143
lowerneck -9.57821 -10.3932 -15.393
upperneck 26.9728 -14.8805 10.6223
head 12.5244 -7.15872 4.37
rclavicle -1.97907e-014 -4.84538e-015
rhumerus -399.588 -14.8413 -436.129
rradius 23.5667
rwrist 28.1112
rhand -10.0125 12.7934
rfingers 7.12502
rthumb 15.9717 -16.5681
lclavicle -1.97907e-014 -4.84538e-015
lhumerus -32.0908 8.06759 85.2021
lradius 15.5379
lwrist -24.0806
lhand -7.70563 23.0542
lfingers 7.12502
lthumb 18.1921 52.2234
rfemur 7.6752 7.55346 22.3136
rtibia -9.54166e-015
rfoot -8.99582 -12.8177
rtoes -11.6375
lfemur -2.80867 -21.6057 -16.981
ltibia 16.4102
lfoot -15.7116 12.8278
ltoes -19.5974
1286
root 0.0731975 17.4065 0.209061 2.8815 4.3526 -2.32306
lowerback -4.5503 -0.477381 -0.0851735
upperback -3.49331 -0.625176 1.12349
thorax -1.02274 -0.297777 1.17776
lowerneck -9.63314 -10.4238 -15.3672
upperneck 26.9832 -14.9103 10.5774
head 12.5382 -7.17176 4.34033
rclavicle -4.06732e-015 -1.12438e-014
rhumerus -399.588 -14.6965 -436.295
rradius 23.686
rwrist 27.8711
rhand -9.80462 12.6262
rfingers 7.12502
rthumb 16.1718 -16.7191
lclavicle -4.06732e-015 -1.12438e-014
lhumerus -32.175 7.87468 85.2978
lradius 15.6122
lwrist -23.9646
lhand -7.44012 23.2519
lfingers 7.12502
lthumb 18.4475 52.3972
rfemur 7.68463 7.52359 22.3628
rtibia 1.43125e-014
rfoot -9.01 -12.7801
rtoes -11.0011
lfemur -2.83124 -21.5233 -16.9228
ltibia 16.4562
lfoot -15.67 12.6833
ltoes -19.8573
1287
root 0.0732518 17.4064 0.208322 2.86745 4.38093 -2.32644
lowerback -4.53352 -0.49102 -0.0980588
upperback -3.47306 -0.64304 1.1244
thorax -1.01072 -0.306585 1.18529
lowerneck -9.69567 -10.442 -15.3913
upperneck 26.9783 -14.9346 10.6171
head 12.5592 -7.17804 4.35183
rclavicle -5.77873e-015 1.78658e-014
rhumerus -399.562 -14.5416 -436.473
rradius 23.7504
rwrist 27.7067
rhand -9.86086 12.6532
rfingers 7.12502
rthumb 16.1176 -16.6966
lclavicle -5.77873e-015 1.78658e-014
lhumerus -32.2416 8.08359 85.2009
lradius 15.5435
lwrist -24.1394
lhand -7.52598 22.8459
lfingers 7.12502
lthumb 18.3649 51.999
rfemur 7.70166 7.48394 22.3668
rtibia -1.11319e-014
rfoot -8.96843 -12.77
rtoes -11.6133
lfemur -2.83406 -21.4827 -16.9158
ltibia 16.4711
lfoot -15.7365 12.5012
ltoes -19.1045
